<svg width="200" height="100" viewBox="0 0 200 100" fill="none" xmlns="http://www.w3.org/2000/svg">
<path d="M86.9416 53.7905V51.5239H106.1V53.7905H97.7916V74.5322H95.2583V53.7905H86.9416Z" fill="white"/>
<path d="M108.276 74.5322V51.5239H118.134C120.367 51.5239 122.171 52.1322 123.551 53.3489C124.934 54.5655 125.626 56.1614 125.626 58.1322C125.626 59.6447 125.18 60.9468 124.292 62.0405C123.409 63.1364 122.219 63.8905 120.726 64.3072L125.892 74.5322H123.092L118.167 64.6405H110.801V74.5322H108.276ZM117.967 53.7905H110.801V62.4989H117.967C119.501 62.4989 120.736 62.103 121.676 61.3072C122.619 60.5072 123.092 59.4489 123.092 58.1322C123.092 56.8155 122.619 55.7635 121.676 54.9739C120.736 54.1864 119.501 53.7905 117.967 53.7905Z" fill="white"/>
<path d="M128.555 74.5322V51.5239H145.022V53.7572H131.08V61.8155H140.188V64.0155H131.08V72.2989H145.147V74.5322H128.555Z" fill="white"/>
<path d="M147.881 51.5239H150.406L164.248 70.1905V51.5239H166.648V74.5322H164.415L150.281 55.3739V74.5322H147.881V51.5239Z" fill="white"/>
<path d="M170.79 74.5322V51.5239H178.382C180.109 51.5239 181.717 51.8155 183.207 52.3989C184.7 52.978 185.984 53.7718 187.057 54.7822C188.127 55.7885 188.965 56.9989 189.565 58.4155C190.169 59.828 190.473 61.3655 190.473 63.0322C190.473 64.6947 190.169 66.2322 189.565 67.6489C188.965 69.0614 188.134 70.2718 187.073 71.2822C186.011 72.2885 184.734 73.0822 183.24 73.6655C181.75 74.2447 180.132 74.5322 178.382 74.5322H170.79ZM178.515 53.8239H173.315V72.2322H178.515C179.825 72.2322 181.061 71.9968 182.223 71.5239C183.384 71.053 184.382 70.4072 185.215 69.5905C186.048 68.7697 186.707 67.7947 187.19 66.6655C187.673 65.5322 187.915 64.3218 187.915 63.0322C187.915 61.7385 187.673 60.528 187.19 59.3989C186.707 58.2718 186.048 57.2968 185.215 56.4739C184.382 55.653 183.384 55.0051 182.223 54.5322C181.061 54.0614 179.825 53.8239 178.515 53.8239Z" fill="white"/>
<mask id="mask0_1_2" style="mask-type:luminance" maskUnits="userSpaceOnUse" x="3" y="4" width="154" height="77">
<path d="M3.36666 4.65416H156.16V80.85H3.36666V4.65416Z" fill="white"/>
</mask>
<g mask="url(#mask0_1_2)">
<path d="M156.16 80.0188V80.2958L14.2958 80.8063H13.6521V80.1625L13.4542 37.0146L5.9625 37.05L3.36666 37.0604L5.43541 35.4667L44.6312 5.20625L45.2937 4.69583L45.9729 5.20625L85.4375 35.1L88.5708 37.4708C86.4771 37.4792 80.8562 37.5062 77.6771 37.5167L77.6958 47.2542H74.9208L74.9396 36.1458V34.7687L76.3083 34.7771L80.7125 34.7958L45.2937 7.48125L8.57708 35.2958L14.2958 35.3229H15.1458V36.1646L14.9396 79.5167L156.16 80.0188Z" fill="white"/>
</g>
<path d="M25.6042 80.2792L188.371 80.0896" stroke="white" stroke-width="0.997876"/>
<path d="M18.9942 90.8756L17.5442 86.1339H17.5025C17.5567 87.1006 17.5859 87.7464 17.5859 88.0673V90.8756H16.4359V84.8339H18.1859L19.6109 89.4506H19.6359L21.1525 84.8339H22.9025V90.8756H21.7025V88.0173C21.7025 87.8798 21.7046 87.7235 21.7109 87.5506C21.715 87.3735 21.7359 86.9048 21.7692 86.1423H21.7275L20.1692 90.8756H18.9942Z" fill="white"/>
<path d="M35.1003 87.8423C35.1003 88.8423 34.8503 89.6131 34.3503 90.1506C33.8545 90.6902 33.144 90.9589 32.217 90.9589C31.294 90.9589 30.5836 90.6902 30.0836 90.1506C29.5878 89.6131 29.342 88.8402 29.342 87.8339C29.342 86.8298 29.5878 86.0631 30.0836 85.5339C30.5836 85.0006 31.2961 84.7339 32.2253 84.7339C33.1524 84.7339 33.8628 85.0048 34.3586 85.5423C34.8524 86.0756 35.1003 86.8423 35.1003 87.8423ZM30.6836 87.8423C30.6836 88.5214 30.8107 89.0319 31.067 89.3756C31.3274 89.7152 31.7107 89.8839 32.217 89.8839C33.2378 89.8839 33.7503 89.2048 33.7503 87.8423C33.7503 86.4819 33.242 85.8006 32.2253 85.8006C31.719 85.8006 31.3357 85.9735 31.0753 86.3173C30.8128 86.6631 30.6836 87.1714 30.6836 87.8423ZM31.5753 84.3423V84.2339C32.0461 83.6839 32.369 83.2714 32.542 82.9923H33.9586V83.0756C33.8128 83.2214 33.569 83.4339 33.2253 83.7173C32.8795 84.0006 32.6086 84.2089 32.4086 84.3423H31.5753Z" fill="white"/>
<path d="M44.9872 84.8339H46.2788L44.2288 90.8756H42.8288L40.7788 84.8339H42.0705L43.2122 88.4256C43.2726 88.6423 43.3372 88.8923 43.4038 89.1756C43.4705 89.4548 43.5122 89.6485 43.5288 89.7589C43.5622 89.5048 43.6663 89.0589 43.8455 88.4256L44.9872 84.8339Z" fill="white"/>
<path d="M55.7131 90.8756H52.2297V84.8339H55.7131V85.8839H53.5131V87.2089H55.5631V88.2589H53.5131V89.8173H55.7131V90.8756Z" fill="white"/>
<path d="M62.1617 90.8756V84.8339H63.4451V90.8756H62.1617Z" fill="white"/>
<path d="M73.7217 89.2006C73.7217 89.7464 73.5238 90.1756 73.13 90.4923C72.7404 90.8048 72.1967 90.9589 71.4967 90.9589C70.8509 90.9589 70.2821 90.8381 69.7884 90.5923V89.4006C70.1925 89.5839 70.5384 89.7152 70.8217 89.7923C71.105 89.8652 71.3634 89.9006 71.5967 89.9006C71.88 89.9006 72.0967 89.8485 72.2467 89.7423C72.3967 89.6319 72.4717 89.4714 72.4717 89.2589C72.4717 89.1423 72.4384 89.0381 72.3717 88.9423C72.305 88.8485 72.2071 88.7589 72.08 88.6756C71.9509 88.5923 71.6904 88.4569 71.2967 88.2673C70.9238 88.0964 70.6467 87.9298 70.4634 87.7673C70.28 87.6069 70.1321 87.4214 70.0217 87.2089C69.9092 86.9985 69.855 86.7506 69.855 86.4673C69.855 85.9298 70.0342 85.5069 70.3967 85.2006C70.7634 84.8964 71.2654 84.7423 71.905 84.7423C72.2154 84.7423 72.5134 84.7819 72.7967 84.8589C73.0842 84.9319 73.3842 85.0339 73.6967 85.1673L73.28 86.1673C72.9571 86.0339 72.6904 85.9423 72.48 85.8923C72.2675 85.8381 72.0634 85.8089 71.8634 85.8089C71.6175 85.8089 71.43 85.8673 71.2967 85.9839C71.1675 86.0964 71.105 86.2423 71.105 86.4256C71.105 86.5381 71.13 86.6339 71.18 86.7173C71.2342 86.8006 71.3175 86.8839 71.43 86.9673C71.5467 87.0464 71.8175 87.1839 72.2467 87.3839C72.8134 87.6569 73.1988 87.9298 73.405 88.2006C73.6154 88.4735 73.7217 88.8069 73.7217 89.2006Z" fill="white"/>
<path d="M88.6816 87.6756H89.1066C89.5003 87.6756 89.7941 87.5985 89.9899 87.4423C90.1837 87.2881 90.2816 87.0589 90.2816 86.7589C90.2816 86.4589 90.1982 86.2402 90.0316 86.1006C89.8691 85.9569 89.6149 85.8839 89.2649 85.8839H88.6816V87.6756ZM91.5732 86.7173C91.5732 87.3673 91.3691 87.8652 90.9649 88.2089C90.5587 88.5548 89.9816 88.7256 89.2316 88.7256H88.6816V90.8756H87.3982V84.8339H89.3316C90.0649 84.8339 90.6191 84.9923 90.9982 85.3089C91.3816 85.6214 91.5732 86.0902 91.5732 86.7173Z" fill="white"/>
<path d="M97.9048 90.8756V84.8339H99.1881V89.8173H101.638V90.8756H97.9048Z" fill="white"/>
<path d="M111.578 90.8756L111.145 89.4339H108.936L108.503 90.8756H107.12L109.253 84.8089H110.82L112.961 90.8756H111.578ZM110.836 88.3589C110.43 87.0589 110.203 86.3235 110.153 86.1506C110.103 85.9798 110.066 85.8423 110.045 85.7423C109.949 86.0985 109.689 86.9714 109.261 88.3589H110.836Z" fill="white"/>
<path d="M124.276 90.8756H122.643L120.018 86.3006H119.976C120.03 87.1131 120.06 87.6902 120.06 88.0339V90.8756H118.91V84.8339H120.526L123.151 89.3589H123.185C123.139 88.5756 123.118 88.0214 123.118 87.6923V84.8339H124.276V90.8756Z" fill="white"/>
<path d="M134.466 90.8756H130.983V84.8339H134.466V85.8839H132.266V87.2089H134.316V88.2589H132.266V89.8173H134.466V90.8756Z" fill="white"/>
<path d="M140.282 92.6506C139.994 92.6506 139.744 92.6194 139.532 92.5589V91.4923C139.748 91.5464 139.948 91.5756 140.132 91.5756C140.415 91.5756 140.615 91.486 140.732 91.3089C140.852 91.136 140.915 90.8652 140.915 90.4923V84.8339H142.198V90.4839C142.198 91.1881 142.036 91.7256 141.715 92.0923C141.392 92.4631 140.915 92.6506 140.282 92.6506Z" fill="white"/>
<path d="M152.608 90.8756L152.175 89.4339H149.966L149.533 90.8756H148.15L150.283 84.8089H151.85L153.991 90.8756H152.608ZM151.866 88.3589C151.46 87.0589 151.233 86.3235 151.183 86.1506C151.133 85.9798 151.096 85.8423 151.075 85.7423C150.979 86.0985 150.719 86.9714 150.291 88.3589H151.866Z" fill="white"/>
<path d="M164.956 87.7923C164.956 88.7881 164.673 89.5506 164.106 90.0839C163.54 90.6131 162.723 90.8756 161.656 90.8756H159.94V84.8339H161.84C162.827 84.8339 163.594 85.0964 164.14 85.6173C164.683 86.1339 164.956 86.8589 164.956 87.7923ZM163.623 87.8256C163.623 86.5319 163.05 85.8839 161.906 85.8839H161.223V89.8173H161.773C163.006 89.8173 163.623 89.1548 163.623 87.8256Z" fill="white"/>
<path d="M176.889 87.8423C176.889 88.8423 176.639 89.6131 176.139 90.1506C175.643 90.6902 174.932 90.9589 174.005 90.9589C173.082 90.9589 172.372 90.6902 171.872 90.1506C171.376 89.6131 171.13 88.8402 171.13 87.8339C171.13 86.8298 171.376 86.0631 171.872 85.5339C172.372 85.0006 173.084 84.7339 174.014 84.7339C174.941 84.7339 175.651 85.0048 176.147 85.5423C176.641 86.0756 176.889 86.8423 176.889 87.8423ZM172.472 87.8423C172.472 88.5214 172.599 89.0318 172.855 89.3756C173.116 89.7152 173.499 89.8839 174.005 89.8839C175.026 89.8839 175.539 89.2048 175.539 87.8423C175.539 86.4818 175.03 85.8006 174.014 85.8006C173.507 85.8006 173.124 85.9735 172.864 86.3173C172.601 86.6631 172.472 87.1714 172.472 87.8423Z" fill="white"/>
<path d="M186.892 89.2006C186.892 89.7464 186.694 90.1756 186.3 90.4923C185.911 90.8048 185.367 90.9589 184.667 90.9589C184.021 90.9589 183.453 90.8381 182.959 90.5923V89.4006C183.363 89.5839 183.709 89.7152 183.992 89.7923C184.275 89.8652 184.534 89.9006 184.767 89.9006C185.05 89.9006 185.267 89.8485 185.417 89.7423C185.567 89.6319 185.642 89.4714 185.642 89.2589C185.642 89.1423 185.609 89.0381 185.542 88.9423C185.475 88.8485 185.378 88.7589 185.25 88.6756C185.121 88.5923 184.861 88.4569 184.467 88.2673C184.094 88.0964 183.817 87.9298 183.634 87.7673C183.45 87.6069 183.303 87.4214 183.192 87.2089C183.08 86.9985 183.025 86.7506 183.025 86.4673C183.025 85.9298 183.205 85.5069 183.567 85.2006C183.934 84.8964 184.436 84.7423 185.075 84.7423C185.386 84.7423 185.684 84.7819 185.967 84.8589C186.255 84.9319 186.555 85.0339 186.867 85.1673L186.45 86.1673C186.128 86.0339 185.861 85.9423 185.65 85.8923C185.438 85.8381 185.234 85.8089 185.034 85.8089C184.788 85.8089 184.6 85.8673 184.467 85.9839C184.338 86.0964 184.275 86.2423 184.275 86.4256C184.275 86.5381 184.3 86.6339 184.35 86.7173C184.405 86.8006 184.488 86.8839 184.6 86.9673C184.717 87.0464 184.988 87.1839 185.417 87.3839C185.984 87.6569 186.369 87.9298 186.575 88.2006C186.786 88.4735 186.892 88.8069 186.892 89.2006Z" fill="white"/>
<path d="M19.0881 51.666H23.6214L35.0631 66.566V51.666H39.5298V74.6826H35.3214L23.5881 59.2993V74.6826H19.0881V51.666Z" fill="white"/>
<path d="M42.7896 74.6826V51.666H60.4729V55.816H47.5562V61.0743H56.0646V65.0826H47.5562V70.541H60.6062V74.6826H42.7896Z" fill="white"/>
<path d="M71.9472 74.6826H66.9472L61.8555 51.666H66.7472L69.8722 67.2826L74.3805 51.666H78.8472L83.3222 67.216L86.4389 51.666H91.1805L86.0805 74.6826H81.0805L76.5139 58.6076L71.9472 74.6826Z" fill="white"/>
</svg>
